<?xml version="1.0" encoding="UTF-8" standalone="no"?>
<!DOCTYPE svg PUBLIC "-//W3C//DTD SVG 1.1//EN"
 "http://www.w3.org/Graphics/SVG/1.1/DTD/svg11.dtd">
<!-- Generated by graphviz version 2.40.1 (20161225.0304)
 -->
<!-- Title: dependencies Pages: 1 -->
<svg width="532pt" height="360pt"
 viewBox="0.00 0.00 532.00 360.00" xmlns="http://www.w3.org/2000/svg" xmlns:xlink="http://www.w3.org/1999/xlink">
<g id="graph0" class="graph" transform="scale(1 1) rotate(0) translate(4 356)">
<title>dependencies</title>
<polygon fill="#ffffff" stroke="transparent" points="-4,4 -4,-356 528,-356 528,4 -4,4"/>
<text text-anchor="start" x="241.0091" y="-42.4" font-family="sans-serif" font-weight="bold" font-size="14.00" fill="#000000">Legend</text>
<polygon fill="#ffffb3" stroke="transparent" points="28,-10 28,-30 48,-30 48,-10 28,-10"/>
<text text-anchor="start" x="51.629" y="-15.4" font-family="sans-serif" font-size="14.00" fill="#000000"> &#160;Declarations</text>
<polygon fill="#8dd3c7" stroke="transparent" points="141,-10 141,-30 161,-30 161,-10 141,-10"/>
<text text-anchor="start" x="164.7251" y="-15.4" font-family="sans-serif" font-size="14.00" fill="#000000"> &#160;Module</text>
<polygon fill="#80b1d3" stroke="transparent" points="227,-10 227,-30 247,-30 247,-10 227,-10"/>
<text text-anchor="start" x="250.7812" y="-15.4" font-family="sans-serif" font-size="14.00" fill="#000000"> &#160;Bootstrap</text>
<polygon fill="#fdb462" stroke="transparent" points="324,-10 324,-30 344,-30 344,-10 324,-10"/>
<text text-anchor="start" x="347.6732" y="-15.4" font-family="sans-serif" font-size="14.00" fill="#000000"> &#160;Providers</text>
<polygon fill="#fb8072" stroke="transparent" points="420,-10 420,-30 440,-30 440,-10 420,-10"/>
<text text-anchor="start" x="443.7258" y="-15.4" font-family="sans-serif" font-size="14.00" fill="#000000"> &#160;Exports</text>
<g id="clust1" class="cluster">
<title>cluster_AppModule</title>
<polygon fill="none" stroke="#000000" stroke-dasharray="1,5" points="109,-146 109,-344 516,-344 516,-146 109,-146"/>
</g>
<g id="clust2" class="cluster">
<title>cluster_AppModule_declarations</title>
<polygon fill="none" stroke="#000000" points="386,-154 386,-206 508,-206 508,-154 386,-154"/>
</g>
<g id="clust4" class="cluster">
<title>cluster_AppModule_imports</title>
<polygon fill="none" stroke="#000000" points="117,-154 117,-206 378,-206 378,-154 117,-154"/>
</g>
<g id="clust6" class="cluster">
<title>cluster_AppModule_bootstrap</title>
<polygon fill="none" stroke="#000000" points="244,-284 244,-336 368,-336 368,-284 244,-284"/>
</g>
<g id="clust14" class="cluster">
<title>cluster_SharedModule</title>
<polygon fill="none" stroke="#000000" stroke-dasharray="1,5" points="8,-70 8,-138 354,-138 354,-70 8,-70"/>
</g>
<g id="clust15" class="cluster">
<title>cluster_SharedModule_declarations</title>
<polygon fill="none" stroke="#000000" points="16,-78 16,-130 346,-130 346,-78 16,-78"/>
</g>
<!-- AppComponent -->
<g id="node1" class="node">
<title>AppComponent</title>
<polygon fill="#ffffb3" stroke="#000000" points="499.9399,-198 394.0601,-198 394.0601,-162 499.9399,-162 499.9399,-198"/>
<text text-anchor="middle" x="447" y="-175.8" font-family="Times,serif" font-size="14.00" fill="#000000">AppComponent</text>
</g>
<!-- AppModule -->
<g id="node2" class="node">
<title>AppModule</title>
<polygon fill="#8dd3c7" stroke="#000000" points="347.6571,-263 344.6571,-267 323.6571,-267 320.6571,-263 264.3429,-263 264.3429,-227 347.6571,-227 347.6571,-263"/>
<text text-anchor="middle" x="306" y="-240.8" font-family="Times,serif" font-size="14.00" fill="#000000">AppModule</text>
</g>
<!-- AppComponent&#45;&gt;AppModule -->
<g id="edge1" class="edge">
<title>AppComponent&#45;&gt;AppModule</title>
<path fill="none" stroke="#000000" d="M447,-198.1061C447,-217.3391 447,-245 447,-245 447,-245 357.9229,-245 357.9229,-245"/>
<polygon fill="#000000" stroke="#000000" points="357.9229,-241.5001 347.9229,-245 357.9229,-248.5001 357.9229,-241.5001"/>
</g>
<!-- AppComponent  -->
<g id="node5" class="node">
<title>AppComponent </title>
<polygon fill="#80b1d3" stroke="#000000" points="360.439,-328 251.561,-328 251.561,-292 360.439,-292 360.439,-328"/>
<text text-anchor="middle" x="306" y="-305.8" font-family="Times,serif" font-size="14.00" fill="#000000">AppComponent </text>
</g>
<!-- AppModule&#45;&gt;AppComponent  -->
<g id="edge4" class="edge">
<title>AppModule&#45;&gt;AppComponent </title>
<path fill="none" stroke="#000000" stroke-dasharray="1,5" d="M306,-263.1061C306,-263.1061 306,-281.991 306,-281.991"/>
<polygon fill="#000000" stroke="#000000" points="302.5001,-281.9909 306,-291.991 309.5001,-281.991 302.5001,-281.9909"/>
</g>
<!-- AppRoutingModule -->
<g id="node3" class="node">
<title>AppRoutingModule</title>
<polygon fill="#8dd3c7" stroke="#000000" points="370.2744,-198 367.2744,-202 346.2744,-202 343.2744,-198 241.7256,-198 241.7256,-162 370.2744,-162 370.2744,-198"/>
<text text-anchor="middle" x="306" y="-175.8" font-family="Times,serif" font-size="14.00" fill="#000000">AppRoutingModule</text>
</g>
<!-- AppRoutingModule&#45;&gt;AppModule -->
<g id="edge2" class="edge">
<title>AppRoutingModule&#45;&gt;AppModule</title>
<path fill="none" stroke="#000000" d="M306,-198.1061C306,-198.1061 306,-216.991 306,-216.991"/>
<polygon fill="#000000" stroke="#000000" points="302.5001,-216.9909 306,-226.991 309.5001,-216.991 302.5001,-216.9909"/>
</g>
<!-- SharedModule -->
<g id="node4" class="node">
<title>SharedModule</title>
<polygon fill="#8dd3c7" stroke="#000000" points="223.4231,-198 220.4231,-202 199.4231,-202 196.4231,-198 124.5769,-198 124.5769,-162 223.4231,-162 223.4231,-198"/>
<text text-anchor="middle" x="174" y="-175.8" font-family="Times,serif" font-size="14.00" fill="#000000">SharedModule</text>
</g>
<!-- SharedModule&#45;&gt;AppModule -->
<g id="edge3" class="edge">
<title>SharedModule&#45;&gt;AppModule</title>
<path fill="none" stroke="#000000" d="M174,-198.1061C174,-217.3391 174,-245 174,-245 174,-245 254.2344,-245 254.2344,-245"/>
<polygon fill="#000000" stroke="#000000" points="254.2344,-248.5001 264.2344,-245 254.2343,-241.5001 254.2344,-248.5001"/>
</g>
<!-- PageTemplateComponent -->
<g id="node6" class="node">
<title>PageTemplateComponent</title>
<polygon fill="#ffffb3" stroke="#000000" points="337.9129,-122 176.0871,-122 176.0871,-86 337.9129,-86 337.9129,-122"/>
<text text-anchor="middle" x="257" y="-99.8" font-family="Times,serif" font-size="14.00" fill="#000000">PageTemplateComponent</text>
</g>
<!-- PageTemplateComponent&#45;&gt;SharedModule -->
<g id="edge5" class="edge">
<title>PageTemplateComponent&#45;&gt;SharedModule</title>
<path fill="none" stroke="#000000" d="M199.7525,-122.0109C199.7525,-122.0109 199.7525,-151.855 199.7525,-151.855"/>
<polygon fill="#000000" stroke="#000000" points="196.2525,-151.8549 199.7525,-161.855 203.2525,-151.855 196.2525,-151.8549"/>
</g>
<!-- WelcomeComponent -->
<g id="node7" class="node">
<title>WelcomeComponent</title>
<polygon fill="#ffffb3" stroke="#000000" points="158.472,-122 23.528,-122 23.528,-86 158.472,-86 158.472,-122"/>
<text text-anchor="middle" x="91" y="-99.8" font-family="Times,serif" font-size="14.00" fill="#000000">WelcomeComponent</text>
</g>
<!-- WelcomeComponent&#45;&gt;SharedModule -->
<g id="edge6" class="edge">
<title>WelcomeComponent&#45;&gt;SharedModule</title>
<path fill="none" stroke="#000000" d="M141.6375,-122.0109C141.6375,-122.0109 141.6375,-151.855 141.6375,-151.855"/>
<polygon fill="#000000" stroke="#000000" points="138.1375,-151.8549 141.6375,-161.855 145.1375,-151.855 138.1375,-151.8549"/>
</g>
</g>
</svg>
